<?xml version="1.0" encoding="UTF-8" standalone="no"?>
<!DOCTYPE svg PUBLIC "-//W3C//DTD SVG 1.1//EN" "http://www.w3.org/Graphics/SVG/1.1/DTD/svg11.dtd">
<svg width="100%" height="100%" viewBox="0 0 9558 15690" version="1.1" xmlns="http://www.w3.org/2000/svg" xmlns:xlink="http://www.w3.org/1999/xlink" xml:space="preserve" xmlns:serif="http://www.serif.com/" style="fill-rule:evenodd;clip-rule:evenodd;stroke-linecap:round;stroke-linejoin:round;stroke-miterlimit:1.5">
    <path id="BG-animation" serif:id="BG animation" d="M0,0l0,15689.1l9557.3,0l0,-15689.1l-9557.3,0Z" style="fill-opacity:0"/>
    <clipPath id="_clip1">
        <path d="M0,0l0,15689.1l9557.3,0l0,-15689.1l-9557.3,0Z"/>
    </clipPath>
    <g clip-path="url(#_clip1)">
        <path id="squiggle" class="animated-squiggle" d="M1568.6,14671.7c1289.09,-567.004 3342.76,384.192 3867.28,-1701.01c524.516,-2085.2 -1180.92,-5679.84 -2713.76,-5442.13c-1532.85,237.704 -2355.7,7033.99 4761.75,4490.79c7117.46,-2543.2 -3355.77,-3073.67 -1982.99,-7056.26c1372.78,-3982.59 4144.12,-971.926 3529.24,512.06c-614.889,1483.99 -3838.63,120.206 -5636.3,-1884.28c-1797.67,-2004.49 -4292.11,-1193.84 -2471.92,1574.98c1820.19,2768.82 3861.7,-4193.73 3918.16,-5165.88" style="fill:none;stroke:#060217;stroke-width:958.33px"/>
    </g>

    <style>

        .animated-squiggle {
            stroke-dasharray: 230% 70%;
            animation: animated-squiggle 20s linear infinite;
        }

        @keyframes animated-squiggle {
            0% {
                stroke-dashoffset: -300%;
            }
            100% {
                stroke-dashoffset: 0%;
            }
        }

    </style>

</svg>
