<svg xmlns="http://www.w3.org/2000/svg" viewBox="0 0 266.96 263.68"><defs><style>.cls-1{fill:#fbff00;}</style></defs><title>logo</title><g id="Layer_2" data-name="Layer 2"><g id="Layer_1-2" data-name="Layer 1"><path class="cls-1" d="M132.81,40.71l0-.12c2.36-1.21,2.82-2.51,3.48-6.35l4.62-27c.65-3.84.65-5.22-1.18-7.14l0-.12,16.46,2.82c8.26,1.41,14.16,5.41,12.92,12.62-1,5.76-6.68,8.26-12.26,7.66,5.94,1.31,12.08,5.3,10.87,12.39-1.35,7.91-8.84,9.68-17.74,8.16Zm15.59,1.23c4.13.7,7.11-2.38,8.14-8.37s-.79-9.77-4.92-10.47l-1.33-.23-3.23,18.84Zm2.86-20.22c3.43.58,6.15-2.36,7.11-7.94s-.63-9.27-4.06-9.86l-.76-.13-3.05,17.8Z"/><path class="cls-1" d="M211.42,25.79c7.14,5,10.69,11.37,6.07,17.92-3.91,5.55-10.83,4.71-16.47.73,4.86,3.86,6.85,8.3,4.4,13l-2.15,4.18c-1.81,3.49-2,5.39-.44,8.5l-.06.1L190.9,61.86a15.92,15.92,0,0,1,2.23-6.23l3.81-6.84c1.55-2.81,1.31-5.14-1.19-6.91l-.82-.57-7,9.93c-2.24,3.18-2.78,4.46-2,7l-.07.09-13.6-9.58.07-.1c2.65-.08,3.63-1,5.87-4.23L194,22c2.24-3.18,2.83-4.42,2-7l.07-.1ZM195.81,40.05l.87.62c3.33,2.34,7.56.85,11-4s3.53-9.21.05-11.66l-.86-.61Z"/><path class="cls-1" d="M209.81,81.38l-4.31-7.73.1-.06c2.27,1,4.16.92,8.05.38L251,69.19l.08.15-24,29.49c-2.5,3-3.34,4.3-3.68,6.72l-.11.06-8.73-15.67.11-.06a4.53,4.53,0,0,0,4-.15,9.09,9.09,0,0,0,2.34-2.12l3.58-4.22L220,75l-4.56.66a9.07,9.07,0,0,0-3.26.94,4.34,4.34,0,0,0-2.22,4.74Zm11.95-6.66L225.81,82l7.73-9Z"/><path class="cls-1" d="M225,111.22c1.7,2,3.07,2.2,7,2l27.34-1.46c3.88-.21,5.23-.52,6.7-2.72h.12l.81,15.14c.62,11.66-5.43,21.09-19.4,21.83-14.19.76-21.22-8-21.82-19.28l-.83-15.49Zm2.17,15.13c.28,5.3,6.61,7.62,19.68,6.93,12.61-.68,18.89-3.67,18.6-9.09l0-.88-38.3,2Z"/><path class="cls-1" d="M257.62,184.34l-.11,0c-.73-2.55-1.89-3.31-5.53-4.7l-30.75-11.76-.42,1.1c-2,5.18.46,10.35,7.36,16.59l0,.11-13-5.9L225,154.05l.11,0c.73,2.56,1.92,3.26,5.55,4.65l25.58,9.78c3.64,1.39,5,1.66,7.23.24l.11,0Z"/><path class="cls-1" d="M226,231.23a12,12,0,0,0-2.55,3.51l-9.76-7.18.08-.08c6.62,2,11.36,2.61,16.19-2.56l.81-.86L217.83,212l-.6.65c-3.26,3.49-3.36,5.5-.6,10.58l-.08.09-10.78-10.07.08-.08c5.22,2.36,7.08,2,10.35-1.48l.6-.65L202.61,197.8l-1,1c-4.88,5.22-3.86,10.53-1,17.49l-.08.08-8.34-9.56,19-20.4.09.08c-.29,2.64.54,3.74,3.39,6.4l20,18.68c2.84,2.66,4,3.41,6.61,3l.09.08Z"/><path class="cls-1" d="M174.73,254.28a7.14,7.14,0,0,0,.52,2.93c.67,1.51,2,2.53,4.53,2.65l0,.11-8.42,3.71,0-.1a18.88,18.88,0,0,0,1.48-7.88L173,237l-4.29-9.72c-1.58-3.56-2.65-4.25-5.74-4.82l0-.1,16.35-7.23.05.11c-1.66,2.67-1.88,3.93-.31,7.49l4.29,9.71,14,12.53a17.76,17.76,0,0,0,6.71,4.26l.05.11-16.57,7.32,0-.11c.89-1.62,1-2.78.53-3.91a7.36,7.36,0,0,0-1.85-2.28l-11.16-10.68Z"/><path class="cls-1" d="M114.66,251.11a9.56,9.56,0,1,1,11-8A9.64,9.64,0,0,1,114.66,251.11Z"/><path class="cls-1" d="M84.17,214.23c-2.64-.29-3.74.54-6.4,3.39l-18.68,20c-2.66,2.84-3.42,4-3,6.61l-.08.09L45,234c-8.54-8-10.71-19-1.17-29.18,9.71-10.4,20.86-8.94,29.1-1.25l11.34,10.59Zm-12.06-9.4c-3.88-3.62-10-.91-19,8.66-8.62,9.23-11.07,15.74-7.1,19.45l.64.6,26.18-28Z"/><path class="cls-1" d="M52.57,178.86,56,187l-.11.05c-2.14-1.27-4-1.37-8-1.25l-37.62.7-.06-.16,27-26.71c2.82-2.73,3.8-3.91,4.4-6.28l.11,0,7,16.52-.1,0a4.5,4.5,0,0,0-4-.29,9.12,9.12,0,0,0-2.55,1.85l-4,3.81,3.74,8.86L46.4,184a9.17,9.17,0,0,0,3.35-.57,4.36,4.36,0,0,0,2.71-4.48ZM40,184.19l-3.23-7.67-8.67,8.15Z"/><path class="cls-1" d="M4.68,125.19a4.48,4.48,0,0,0-4.36,2.94H.21l-.21-9H.12c1.52,2,3.73,3,7.42,4.32L42.3,136.37v.18l-34.95,15c-3.57,1.5-5,2.18-6.4,4.17H.84L.43,137.86H.55a4.41,4.41,0,0,0,3.7,1.69,10.64,10.64,0,0,0,3-.72l18-7-17-5.92A9,9,0,0,0,4.68,125.19Z"/><path class="cls-1" d="M49.34,96.35l.11,0L44,112.05l-.11,0c-.82-2.53-2-3.2-5.7-4.47l-25.87-9c-3.68-1.27-5-1.49-7.24,0l-.11,0,5.42-15.66.11,0c.83,2.47,2,3.19,5.7,4.46l25.87,9C45.78,97.61,47.16,97.78,49.34,96.35Z"/><path class="cls-1" d="M30.18,61C34,63.9,37.75,61.6,42,59.29c5-2.62,10.54-5.35,17.4,0,6.5,5,6.51,13.3,1.82,19.37C58.62,82,55.71,83.23,54.38,85a5.45,5.45,0,0,0-1,3.83L41,80.28l.07-.09c8.25,2,15.94,2,19-2,2.49-3.22,2-6.65-1.36-9.25-3.87-3-8.3-.15-13.25,2.29s-10.25,4.39-15.94,0C23.26,66.36,23,58.66,27.71,52.5c2.34-3,4.95-4,6.36-5.82a4,4,0,0,0,.64-3.24L45,50.82l-.07.1c-6.62-1.76-12.68-2.42-16,1.88A5.67,5.67,0,0,0,30.18,61Z"/><path class="cls-1" d="M91.77,23.8a9.56,9.56,0,1,1-5.51,12.39A9.64,9.64,0,0,1,91.77,23.8Z"/></g></g></svg>